# xmcd
#
# Track frame offsets:
#	150
#	13918
#	30194
#	45651
#	60243
#	78753
#	94891
#	110799
#	128619
#	147878
#	165669
#	183496
#	201950
#	216735
#	231964
#	250122
#	266561
#	280493
#	295039
#	314321
#	329475
#	345127
#
# Disc length: 4833 seconds
#
# Revision: 1
# Processed by: cddbd v1.5.2PL0 Copyright (c) Steve Scherf et al.
# Submitted via: EasyCDDAExtractor 11.9.9.666
#
DISCID=4012df16
DTITLE=Artista desconocido - Fiesta en Espaсa
DYEAR=2009
DGENRE=Trad
TTITLE0=Paqiuito El Chooolatero
TTITLE1=La Camisa Negra
TTITLE2=No Rompas Mi Oorazon
TTITLE3=Que Si Qui No
TTITLE4=Levantando Las Manos
TTITLE5=Mamae Eu Quero 
TTITLE6=Paloma Blanca
TTITLE7=Mayoneba
TTITLE8=El Gallo
TTITLE9=La Puntita
TTITLE10=Bopa De Caracol
TTITLE11=Obsesion
TTITLE12=Mujer Latina
TTITLE13=Salome
TTITLE14=El De Los Ojos Negros
TTITLE15=Y Viva Espana
TTITLE16=Hey Baby
TTITLE17=Chocolate
TTITLE18=Maria
TTITLE19=La Bomba
TTITLE20=Macarena
TTITLE21=La Cancion Del Pensionista
EXTD=
EXTT0=
EXTT1=
EXTT2=
EXTT3=
EXTT4=
EXTT5=
EXTT6=
EXTT7=
EXTT8=
EXTT9=
EXTT10=
EXTT11=
EXTT12=
EXTT13=
EXTT14=
EXTT15=
EXTT16=
EXTT17=
EXTT18=
EXTT19=
EXTT20=
EXTT21=
PLAYORDER=
